<?xml version="1.0" encoding="UTF-8" standalone="no"?>
<!DOCTYPE svg PUBLIC "-//W3C//DTD SVG 1.1//EN"
 "http://www.w3.org/Graphics/SVG/1.1/DTD/svg11.dtd">
<!-- Generated by graphviz version 2.38.0 (20140413.2041)
 -->
<!-- Title: models_diagram Pages: 1 -->
<svg width="988pt" height="408pt"
 viewBox="0.00 0.00 988.34 408.00" xmlns="http://www.w3.org/2000/svg" xmlns:xlink="http://www.w3.org/1999/xlink">
<g id="graph0" class="graph" transform="scale(1 1) rotate(0) translate(4 404)">
<title>models_diagram</title>
<polygon fill="none" stroke="none" points="-4,4 -4,-404 984.343,-404 984.343,4 -4,4"/>
<!-- _diagram_info -->
<g id="node1" class="node"><title>_diagram_info</title>
<text text-anchor="start" x="8" y="-303.6" font-family="Times,serif" font-size="13.00">Models diagram</text>
<text text-anchor="start" x="8" y="-289.6" font-family="Times,serif" font-size="13.00">Date: Oct 11 2017 &#45; 19:12</text>
<text text-anchor="start" x="8" y="-275.6" font-family="Times,serif" font-size="13.00">Migration version: 20171011221151</text>
<text text-anchor="start" x="8" y="-261.6" font-family="Times,serif" font-size="13.00">Generated by RailRoady 1.5.3</text>
<text text-anchor="start" x="8" y="-247.6" font-family="Times,serif" font-size="13.00">http://railroady.prestonlee.com</text>
</g>
<!-- Comment -->
<g id="node2" class="node"><title>Comment</title>
<path fill="none" stroke="black" d="M392,-0.5C392,-0.5 612,-0.5 612,-0.5 618,-0.5 624,-6.5 624,-12.5 624,-12.5 624,-109.5 624,-109.5 624,-115.5 618,-121.5 612,-121.5 612,-121.5 392,-121.5 392,-121.5 386,-121.5 380,-115.5 380,-109.5 380,-109.5 380,-12.5 380,-12.5 380,-6.5 386,-0.5 392,-0.5"/>
<text text-anchor="middle" x="502" y="-106.3" font-family="Times,serif" font-size="14.00">Comment</text>
<polyline fill="none" stroke="black" points="380,-98.5 624,-98.5 "/>
<text text-anchor="start" x="388" y="-83.3" font-family="Times,serif" font-size="14.00">id :integer</text>
<text text-anchor="start" x="388" y="-68.3" font-family="Times,serif" font-size="14.00">contenxt :text</text>
<text text-anchor="start" x="388" y="-53.3" font-family="Times,serif" font-size="14.00">company_id :integer</text>
<text text-anchor="start" x="388" y="-38.3" font-family="Times,serif" font-size="14.00">user_id :integer</text>
<text text-anchor="start" x="388" y="-23.3" font-family="Times,serif" font-size="14.00">created_at :timestamp without time zone</text>
<text text-anchor="start" x="388" y="-8.3" font-family="Times,serif" font-size="14.00">updated_at :timestamp without time zone</text>
</g>
<!-- Company -->
<g id="node3" class="node"><title>Company</title>
<path fill="none" stroke="black" d="M244,-233.5C244,-233.5 464,-233.5 464,-233.5 470,-233.5 476,-239.5 476,-245.5 476,-245.5 476,-312.5 476,-312.5 476,-318.5 470,-324.5 464,-324.5 464,-324.5 244,-324.5 244,-324.5 238,-324.5 232,-318.5 232,-312.5 232,-312.5 232,-245.5 232,-245.5 232,-239.5 238,-233.5 244,-233.5"/>
<text text-anchor="middle" x="354" y="-309.3" font-family="Times,serif" font-size="14.00">Company</text>
<polyline fill="none" stroke="black" points="232,-301.5 476,-301.5 "/>
<text text-anchor="start" x="240" y="-286.3" font-family="Times,serif" font-size="14.00">id :integer</text>
<text text-anchor="start" x="240" y="-271.3" font-family="Times,serif" font-size="14.00">name :character varying</text>
<text text-anchor="start" x="240" y="-256.3" font-family="Times,serif" font-size="14.00">created_at :timestamp without time zone</text>
<text text-anchor="start" x="240" y="-241.3" font-family="Times,serif" font-size="14.00">updated_at :timestamp without time zone</text>
</g>
<!-- Company&#45;&gt;Comment -->
<g id="edge1" class="edge"><title>Company&#45;&gt;Comment</title>
<path fill="none" stroke="#e3912c" d="M389.44,-226.276C409.112,-197.566 433.83,-161.492 455.087,-130.467"/>
<ellipse fill="none" stroke="#e3912c" cx="386.927" cy="-229.945" rx="4.00002" ry="4.00002"/>
<polygon fill="#e3912c" stroke="#e3912c" points="455.332,-130.11 464.696,-124.405 458.158,-125.986 460.984,-121.861 460.984,-121.861 460.984,-121.861 458.158,-125.986 457.272,-119.317 455.332,-130.11 455.332,-130.11"/>
</g>
<!-- ApplicationRecord -->
<g id="node4" class="node"><title>ApplicationRecord</title>
<ellipse fill="none" stroke="black" cx="903" cy="-279" rx="77.1866" ry="18"/>
<text text-anchor="middle" x="903" y="-275.3" font-family="Times,serif" font-size="14.00">ApplicationRecord</text>
</g>
<!-- User -->
<g id="node5" class="node"><title>User</title>
<path fill="none" stroke="black" d="M506.5,-158.5C506.5,-158.5 795.5,-158.5 795.5,-158.5 801.5,-158.5 807.5,-164.5 807.5,-170.5 807.5,-170.5 807.5,-387.5 807.5,-387.5 807.5,-393.5 801.5,-399.5 795.5,-399.5 795.5,-399.5 506.5,-399.5 506.5,-399.5 500.5,-399.5 494.5,-393.5 494.5,-387.5 494.5,-387.5 494.5,-170.5 494.5,-170.5 494.5,-164.5 500.5,-158.5 506.5,-158.5"/>
<text text-anchor="middle" x="651" y="-384.3" font-family="Times,serif" font-size="14.00">User</text>
<polyline fill="none" stroke="black" points="494.5,-376.5 807.5,-376.5 "/>
<text text-anchor="start" x="502.5" y="-361.3" font-family="Times,serif" font-size="14.00">id :integer</text>
<text text-anchor="start" x="502.5" y="-346.3" font-family="Times,serif" font-size="14.00">email :character varying</text>
<text text-anchor="start" x="502.5" y="-331.3" font-family="Times,serif" font-size="14.00">encrypted_password :character varying</text>
<text text-anchor="start" x="502.5" y="-316.3" font-family="Times,serif" font-size="14.00">reset_password_token :character varying</text>
<text text-anchor="start" x="502.5" y="-301.3" font-family="Times,serif" font-size="14.00">reset_password_sent_at :timestamp without time zone</text>
<text text-anchor="start" x="502.5" y="-286.3" font-family="Times,serif" font-size="14.00">remember_created_at :timestamp without time zone</text>
<text text-anchor="start" x="502.5" y="-271.3" font-family="Times,serif" font-size="14.00">sign_in_count :integer</text>
<text text-anchor="start" x="502.5" y="-256.3" font-family="Times,serif" font-size="14.00">current_sign_in_at :timestamp without time zone</text>
<text text-anchor="start" x="502.5" y="-241.3" font-family="Times,serif" font-size="14.00">last_sign_in_at :timestamp without time zone</text>
<text text-anchor="start" x="502.5" y="-226.3" font-family="Times,serif" font-size="14.00">current_sign_in_ip :inet</text>
<text text-anchor="start" x="502.5" y="-211.3" font-family="Times,serif" font-size="14.00">last_sign_in_ip :inet</text>
<text text-anchor="start" x="502.5" y="-196.3" font-family="Times,serif" font-size="14.00">created_at :timestamp without time zone</text>
<text text-anchor="start" x="502.5" y="-181.3" font-family="Times,serif" font-size="14.00">updated_at :timestamp without time zone</text>
<text text-anchor="start" x="502.5" y="-166.3" font-family="Times,serif" font-size="14.00">name :character varying</text>
</g>
<!-- User&#45;&gt;Comment -->
<g id="edge2" class="edge"><title>User&#45;&gt;Comment</title>
<path fill="none" stroke="#a8ce5d" d="M563.75,-151.517C558.756,-144.277 553.84,-137.151 549.097,-130.274"/>
<ellipse fill="none" stroke="#a8ce5d" cx="566.167" cy="-155.021" rx="4.00002" ry="4.00002"/>
<polygon fill="#a8ce5d" stroke="#a8ce5d" points="548.866,-129.939 546.891,-119.152 546.026,-125.823 543.187,-121.708 543.187,-121.708 543.187,-121.708 546.026,-125.823 539.483,-124.263 548.866,-129.939 548.866,-129.939"/>
</g>
</g>
</svg>
