<?xml version="1.0" encoding="UTF-8" standalone="no"?>
<!DOCTYPE svg PUBLIC "-//W3C//DTD SVG 1.1//EN"
 "http://www.w3.org/Graphics/SVG/1.1/DTD/svg11.dtd">
<!-- Generated by graphviz version 2.38.0 (20140413.2041)
 -->
<!-- Title: models_diagram Pages: 1 -->
<svg width="576pt" height="158pt"
 viewBox="0.00 0.00 576.34 158.00" xmlns="http://www.w3.org/2000/svg" xmlns:xlink="http://www.w3.org/1999/xlink">
<g id="graph0" class="graph" transform="scale(1 1) rotate(0) translate(4 154)">
<title>models_diagram</title>
<polygon fill="none" stroke="none" points="-4,4 -4,-154 572.343,-154 572.343,4 -4,4"/>
<!-- _diagram_info -->
<g id="node1" class="node"><title>_diagram_info</title>
<text text-anchor="start" x="8" y="-135.6" font-family="Times,serif" font-size="13.00">Models diagram</text>
<text text-anchor="start" x="8" y="-121.6" font-family="Times,serif" font-size="13.00">Date: Oct 11 2017 &#45; 19:12</text>
<text text-anchor="start" x="8" y="-107.6" font-family="Times,serif" font-size="13.00">Migration version: 20171011221151</text>
<text text-anchor="start" x="8" y="-93.6" font-family="Times,serif" font-size="13.00">Generated by RailRoady 1.5.3</text>
<text text-anchor="start" x="8" y="-79.6" font-family="Times,serif" font-size="13.00">http://railroady.prestonlee.com</text>
</g>
<!-- Comment -->
<g id="node2" class="node"><title>Comment</title>
<ellipse fill="none" stroke="black" cx="322" cy="-18" rx="46.2923" ry="18"/>
<text text-anchor="middle" x="322" y="-14.3" font-family="Times,serif" font-size="14.00">Comment</text>
</g>
<!-- Company -->
<g id="node3" class="node"><title>Company</title>
<ellipse fill="none" stroke="black" cx="277" cy="-111" rx="45.4919" ry="18"/>
<text text-anchor="middle" x="277" y="-107.3" font-family="Times,serif" font-size="14.00">Company</text>
</g>
<!-- Company&#45;&gt;Comment -->
<g id="edge1" class="edge"><title>Company&#45;&gt;Comment</title>
<path fill="none" stroke="#3dc12e" d="M289.097,-85.538C295.308,-72.9765 302.877,-57.6718 309.188,-44.909"/>
<ellipse fill="none" stroke="#3dc12e" cx="287.237" cy="-89.298" rx="4.00002" ry="4.00002"/>
<polygon fill="#3dc12e" stroke="#3dc12e" points="309.293,-44.6961 317.76,-37.7269 311.509,-40.2141 313.726,-35.7322 313.726,-35.7322 313.726,-35.7322 311.509,-40.2141 309.692,-33.7375 309.293,-44.6961 309.293,-44.6961"/>
</g>
<!-- ApplicationRecord -->
<g id="node4" class="node"><title>ApplicationRecord</title>
<ellipse fill="none" stroke="black" cx="491" cy="-111" rx="77.1866" ry="18"/>
<text text-anchor="middle" x="491" y="-107.3" font-family="Times,serif" font-size="14.00">ApplicationRecord</text>
</g>
<!-- User -->
<g id="node5" class="node"><title>User</title>
<ellipse fill="none" stroke="black" cx="368" cy="-111" rx="27.0966" ry="18"/>
<text text-anchor="middle" x="368" y="-107.3" font-family="Times,serif" font-size="14.00">User</text>
</g>
<!-- User&#45;&gt;Comment -->
<g id="edge2" class="edge"><title>User&#45;&gt;Comment</title>
<path fill="none" stroke="#68a74e" d="M356.05,-86.3589C349.591,-73.5825 341.608,-57.7898 334.995,-44.7082"/>
<ellipse fill="none" stroke="#68a74e" cx="357.972" cy="-90.1612" rx="4.00002" ry="4.00002"/>
<polygon fill="#68a74e" stroke="#68a74e" points="334.975,-44.6684 334.48,-33.7137 332.72,-40.2061 330.464,-35.7438 330.464,-35.7438 330.464,-35.7438 332.72,-40.2061 326.448,-37.7739 334.975,-44.6684 334.975,-44.6684"/>
</g>
</g>
</svg>
